<svg width="141.3125px" height="240.79999999999998px" xmlns="http://www.w3.org/2000/svg" viewBox="179.34375 -45.39999999999999 141.3125 240.79999999999998" style="background: rgba(0, 0, 0, 0);" preserveAspectRatio="xMidYMid"><defs><linearGradient id="editing-shiny-gradient" x1="0.04322727117869957" x2="0.9567727288213004" y1="0.2966316784620999" y2="0.7033683215379001" gradientUnits="objectBoundingBox"><stop offset="0.0" stop-color="#db1709"></stop><stop offset="0.5" stop-color="#db1709"></stop><stop offset="1.0" stop-color="#db1709"></stop></linearGradient><linearGradient id="editing-shiny-gradient2" x1="0" x2="0" y1="0" y2="1"><stop offset="0.2" stop-color="#fff" stop-opacity="0.8"></stop><stop offset="0.8" stop-color="#fff" stop-opacity="0"></stop></linearGradient><filter id="editing-shiny2" x="-100%" y="-100%" width="300%" height="300%"><feMorphology operator="erode" radius="2"></feMorphology></filter><filter id="editing-shiny" x="-100%" y="-100%" width="300%" height="300%"><feFlood flood-color="#fff" result="flood"></feFlood><feConvolveMatrix in="SourceGraphic" result="conv" order="8,8" divisor="1" kernelMatrix="0 0 0 0 0 0 0 0 0 0 0 1 1 0 0 0 0 0 0 1 1 0 0 0 0 0 1 0 0 1 0 0 0 0 1 0 0 1 0 0 0 1 0 0 0 0 1 0 0 1 1 0 0 1 1 0 0 0 0 1 1 0 0 0 "></feConvolveMatrix><feOffset dx="0" dy="4" in="conv" result="offset"></feOffset><feComposite operator="in" in="flood" in2="offset" result="comp"></feComposite><feGaussianBlur in="offset" stdDeviation="3" result="shadow"></feGaussianBlur><feColorMatrix in="shadow" type="matrix" values="0.7 0 0 0 0  0 0.7 0 0 0  0 0 0.7 0 0  0 0 0 0.3 0" result="dark-shadow"></feColorMatrix><feOffset dx="0" dy="4" in="dark-shadow" result="offset-shadow"></feOffset><feOffset dx="0" dy="2" in="conv" result="offset-2"></feOffset><feComposite operator="out" in="offset" in2="offset-2" result="edge-diff"></feComposite><feGaussianBlur in="edge-diff" stdDeviation="1" result="edge-blur"></feGaussianBlur><feColorMatrix in="edge-blur" result="edge-shadow" type="matrix" values="0 0 0 0 0  0 0 0 0 0  0 0 0 0 0  0 0 0 0.5 0"></feColorMatrix><feComposite operator="in" in="edge-shadow" in2="offset" result="edge-shadow-in"></feComposite><feOffset dx="0" dy="1" in="edge-shadow-in" result="edge-shadow-final"></feOffset><feMerge result="out"><feMergeNode in="offset-shadow"></feMergeNode><feMergeNode in="comp"></feMergeNode><feMergeNode in="edge-shadow-final"></feMergeNode><feMergeNode in="SourceGraphic"></feMergeNode></feMerge></filter></defs><g filter="url(#editing-shiny)"><g transform="translate(210.1276582479477, 126.4300012588501)"><path d="M72.28-15.43L72.28-15.43L72.28-15.43Q72.28-9.31 78.54-7.51L78.54-7.51L78.54-7.51Q77.01-2.36 71.03 0.42L71.03 0.42L71.03 0.42Q66.03 2.78 60.53 2.78L60.53 2.78L60.53 2.78Q55.04 2.78 52.19 1.32L52.19 1.32L52.19 1.32Q49.35-0.14 47.82-2.50L47.82-2.50L47.82-2.50Q45.31-6.12 45.31-12.93L45.31-12.93L45.31-12.93Q45.31-16.96 47.54-28.08L47.54-28.08L49.48-38.64L49.48-38.64Q51.85-50.74 51.85-55.18L51.85-55.18L51.85-55.18Q51.85-62.97 47.54-62.97L47.54-62.97L47.54-62.97Q42.12-62.97 38.64-55.04L38.64-55.04L38.64-55.04Q37.25-51.99 36.28-47.40L36.28-47.40L26.83 0L-1.11 2.78L18.49-97.30L46.43-100.08L45.31-94.52L45.31-94.52Q41.42-73.11 38.09-65.89L38.09-65.89L38.09-65.89Q45.87-73.67 60.19-73.67L60.19-73.67L60.19-73.67Q75.34-73.67 78.12-63.66L78.12-63.66L78.12-63.66Q79.09-60.47 79.09-57.69L79.09-57.69L79.09-57.69Q79.09-54.91 78.88-52.75L78.88-52.75L78.88-52.75Q78.67-50.60 77.98-46.70L77.98-46.70L76.17-36.70L72.98-20.99L72.98-20.99Q72.28-17.79 72.28-15.43Z" fill="url(#editing-shiny-gradient)"></path></g></g><g filter="url(#editing-shiny2)"><g transform="translate(210.0099710226059, 126.43000221252441)"><path d="M72.28-15.43L72.28-15.43L72.28-15.43Q72.28-9.31 78.54-7.51L78.54-7.51L78.54-7.51Q77.01-2.36 71.03 0.42L71.03 0.42L71.03 0.42Q66.03 2.78 60.53 2.78L60.53 2.78L60.53 2.78Q55.04 2.78 52.19 1.32L52.19 1.32L52.19 1.32Q49.35-0.14 47.82-2.50L47.82-2.50L47.82-2.50Q45.31-6.12 45.31-12.93L45.31-12.93L45.31-12.93Q45.31-16.96 47.54-28.08L47.54-28.08L49.48-38.64L49.48-38.64Q51.85-50.74 51.85-55.18L51.85-55.18L51.85-55.18Q51.85-62.97 47.54-62.97L47.54-62.97L47.54-62.97Q42.12-62.97 38.64-55.04L38.64-55.04L38.64-55.04Q37.25-51.99 36.28-47.40L36.28-47.40L26.83 0L-1.11 2.78L18.49-97.30L46.43-100.08L45.31-94.52L45.31-94.52Q41.42-73.11 38.09-65.89L38.09-65.89L38.09-65.89Q45.87-73.67 60.19-73.67L60.19-73.67L60.19-73.67Q75.34-73.67 78.12-63.66L78.12-63.66L78.12-63.66Q79.09-60.47 79.09-57.69L79.09-57.69L79.09-57.69Q79.09-54.91 78.88-52.75L78.88-52.75L78.88-52.75Q78.67-50.60 77.98-46.70L77.98-46.70L76.17-36.70L72.98-20.99L72.98-20.99Q72.28-17.79 72.28-15.43Z" fill="url(#editing-shiny-gradient2)"></path></g></g><style>text {
  font-size: 64px;
  font-family: Arial Black;
  dominant-baseline: central;
  text-anchor: middle;
}</style></svg>