<svg id="visual" viewBox="0 0 1920 600" width="1920" height="600" xmlns="http://www.w3.org/2000/svg" xmlns:xlink="http://www.w3.org/1999/xlink" version="1.1"><rect x="0" y="0" width="1920" height="600" fill="#C62368"></rect><path d="M0 354L45.7 362.5C91.3 371 182.7 388 274.2 401C365.7 414 457.3 423 548.8 418C640.3 413 731.7 394 823 393.7C914.3 393.3 1005.7 411.7 1097 420.8C1188.3 430 1279.7 430 1371.2 424.8C1462.7 419.7 1554.3 409.3 1645.8 401.2C1737.3 393 1828.7 387 1874.3 384L1920 381L1920 601L1874.3 601C1828.7 601 1737.3 601 1645.8 601C1554.3 601 1462.7 601 1371.2 601C1279.7 601 1188.3 601 1097 601C1005.7 601 914.3 601 823 601C731.7 601 640.3 601 548.8 601C457.3 601 365.7 601 274.2 601C182.7 601 91.3 601 45.7 601L0 601Z" fill="#fa7268"></path><path d="M0 439L45.7 438.7C91.3 438.3 182.7 437.7 274.2 437.7C365.7 437.7 457.3 438.3 548.8 435.2C640.3 432 731.7 425 823 422C914.3 419 1005.7 420 1097 418.5C1188.3 417 1279.7 413 1371.2 418.5C1462.7 424 1554.3 439 1645.8 444C1737.3 449 1828.7 444 1874.3 441.5L1920 439L1920 601L1874.3 601C1828.7 601 1737.3 601 1645.8 601C1554.3 601 1462.7 601 1371.2 601C1279.7 601 1188.3 601 1097 601C1005.7 601 914.3 601 823 601C731.7 601 640.3 601 548.8 601C457.3 601 365.7 601 274.2 601C182.7 601 91.3 601 45.7 601L0 601Z" fill="#ef5f67"></path><path d="M0 491L45.7 485.2C91.3 479.3 182.7 467.7 274.2 462.5C365.7 457.3 457.3 458.7 548.8 459.7C640.3 460.7 731.7 461.3 823 462.7C914.3 464 1005.7 466 1097 462.2C1188.3 458.3 1279.7 448.7 1371.2 455.3C1462.7 462 1554.3 485 1645.8 492.7C1737.3 500.3 1828.7 492.7 1874.3 488.8L1920 485L1920 601L1874.3 601C1828.7 601 1737.3 601 1645.8 601C1554.3 601 1462.7 601 1371.2 601C1279.7 601 1188.3 601 1097 601C1005.7 601 914.3 601 823 601C731.7 601 640.3 601 548.8 601C457.3 601 365.7 601 274.2 601C182.7 601 91.3 601 45.7 601L0 601Z" fill="#e34c67"></path><path d="M0 537L45.7 531.5C91.3 526 182.7 515 274.2 515C365.7 515 457.3 526 548.8 529.3C640.3 532.7 731.7 528.3 823 518.8C914.3 509.3 1005.7 494.7 1097 493.5C1188.3 492.3 1279.7 504.7 1371.2 508.3C1462.7 512 1554.3 507 1645.8 501.3C1737.3 495.7 1828.7 489.3 1874.3 486.2L1920 483L1920 601L1874.3 601C1828.7 601 1737.3 601 1645.8 601C1554.3 601 1462.7 601 1371.2 601C1279.7 601 1188.3 601 1097 601C1005.7 601 914.3 601 823 601C731.7 601 640.3 601 548.8 601C457.3 601 365.7 601 274.2 601C182.7 601 91.3 601 45.7 601L0 601Z" fill="#d53867"></path><path d="M0 555L45.7 552C91.3 549 182.7 543 274.2 544.5C365.7 546 457.3 555 548.8 554.7C640.3 554.3 731.7 544.7 823 543.2C914.3 541.7 1005.7 548.3 1097 551C1188.3 553.7 1279.7 552.3 1371.2 549.2C1462.7 546 1554.3 541 1645.8 542.5C1737.3 544 1828.7 552 1874.3 556L1920 560L1920 601L1874.3 601C1828.7 601 1737.3 601 1645.8 601C1554.3 601 1462.7 601 1371.2 601C1279.7 601 1188.3 601 1097 601C1005.7 601 914.3 601 823 601C731.7 601 640.3 601 548.8 601C457.3 601 365.7 601 274.2 601C182.7 601 91.3 601 45.7 601L0 601Z" fill="#c62368"></path></svg>